<mxfile host="app.diagrams.net" modified="2023-06-06T21:01:00.911Z" agent="Mozilla/5.0 (Windows NT 10.0; Win64; x64; rv:109.0) Gecko/20100101 Firefox/114.0" version="21.3.7" etag="y-B_-iNtifA58sKqip7D" type="github">
  <diagram name="Strona-1" id="0Gnlo99S9abNiMyWm72p">
    <mxGraphModel>
      <root>
        <mxCell id="0" />
        <mxCell id="1" parent="0" />
      </root>
    </mxGraphModel>
  </diagram>
</mxfile>
